<?xml version="1.0" standalone="no"?>
<!DOCTYPE svg PUBLIC "-//W3C//DTD SVG 20010904//EN"
 "http://www.w3.org/TR/2001/REC-SVG-20010904/DTD/svg10.dtd">
<svg version="1.0" xmlns="http://www.w3.org/2000/svg"
 width="640.000000pt" height="640.000000pt" viewBox="0 0 640.000000 640.000000"
 preserveAspectRatio="xMidYMid meet">
<metadata>
Created by potrace 1.14, written by Peter Selinger 2001-2017
</metadata>
<g transform="translate(0.000000,640.000000) scale(0.100000,-0.100000)"
fill="#000000" stroke="none">
<path d="M0 3200 l0 -3200 3200 0 3200 0 0 3200 0 3200 -3200 0 -3200 0 0
-3200z m3590 2846 c320 -52 584 -134 850 -265 268 -133 512 -309 730 -530 341
-343 579 -744 715 -1201 59 -201 82 -324 106 -575 12 -124 6 -506 -10 -575 -5
-25 -15 -85 -21 -135 -15 -114 -32 -187 -76 -333 -95 -314 -204 -541 -378
-787 -89 -125 -277 -335 -301 -335 -6 0 -18 8 -26 18 -21 22 -345 340 -559
546 -91 88 -278 270 -415 405 -138 135 -351 343 -473 461 -122 118 -222 218
-222 222 0 5 372 9 828 10 l827 3 3 268 2 267 -629 0 c-346 0 -636 3 -645 6
-39 15 -16 52 92 151 59 54 109 100 112 103 3 3 37 35 75 70 39 36 122 112
185 170 129 119 366 337 423 391 l39 35 -129 119 c-70 66 -161 151 -201 190
-40 38 -81 74 -89 79 -13 7 -111 -87 -472 -453 -251 -254 -459 -462 -463 -461
-5 0 -9 298 -10 663 l-3 662 -260 0 -260 0 -3 -667 c-1 -368 -6 -668 -10 -668
-9 0 -128 122 -221 225 -30 33 -111 121 -181 195 -69 74 -176 189 -237 255
-61 66 -147 158 -191 205 l-81 85 -88 -90 c-49 -49 -135 -139 -192 -200 l-104
-110 89 -83 c49 -46 170 -159 269 -250 99 -91 216 -200 260 -242 78 -75 211
-199 270 -252 l29 -27 -21 -38 -22 -38 -642 -2 c-353 -1 -646 -6 -651 -11 -4
-4 -7 -130 -6 -278 l3 -269 815 -1 c448 0 821 -1 829 -2 7 -1 -67 -79 -165
-174 -99 -95 -269 -261 -379 -369 -177 -174 -318 -311 -573 -557 -42 -39 -76
-72 -77 -72 -1 0 -273 -265 -380 -371 -55 -54 -103 -99 -107 -99 -10 0 -158
153 -158 163 0 8 -33 48 -77 93 -18 18 -33 40 -33 49 0 8 -4 15 -10 15 -5 0
-6 8 -3 17 5 12 2 15 -10 10 -16 -6 -43 30 -95 124 -38 68 -47 84 -52 89 -11
11 -101 197 -104 216 -3 12 -9 30 -15 40 -20 37 -51 112 -70 175 -76 248 -89
304 -117 494 -51 339 -30 810 48 1105 17 63 34 131 39 150 8 34 40 125 94 265
78 204 295 560 451 741 169 195 357 365 550 497 100 69 137 92 279 172 214
121 621 256 899 296 211 31 626 34 806 5z"/>
<path d="M691 2044 c0 -11 3 -14 6 -6 3 7 2 16 -1 19 -3 4 -6 -2 -5 -13z"/>
<path d="M701 1994 c0 -11 3 -14 6 -6 3 7 2 16 -1 19 -3 4 -6 -2 -5 -13z"/>
<path d="M721 1944 c0 -11 3 -14 6 -6 3 7 2 16 -1 19 -3 4 -6 -2 -5 -13z"/>
<path d="M755 1931 c-8 -27 -4 -33 12 -16 6 6 7 18 3 25 -6 9 -10 7 -15 -9z"/>
<path d="M806 1795 c4 -8 11 -15 16 -15 6 0 5 6 -2 15 -7 8 -14 15 -16 15 -2
0 -1 -7 2 -15z"/>
<path d="M860 1785 c1 -12 25 -45 34 -45 10 0 7 38 -4 45 -5 3 -10 0 -10 -7 0
-9 -3 -9 -10 2 -5 8 -10 11 -10 5z"/>
<path d="M830 1755 c0 -8 5 -15 10 -15 6 0 10 7 10 15 0 8 -4 15 -10 15 -5 0
-10 -7 -10 -15z"/>
<path d="M855 1731 c-3 -5 -1 -12 5 -16 5 -3 10 1 10 9 0 18 -6 21 -15 7z"/>
<path d="M905 1710 c3 -5 11 -10 16 -10 6 0 7 5 4 10 -3 6 -11 10 -16 10 -6 0
-7 -4 -4 -10z"/>
<path d="M935 1650 c-3 -5 -1 -10 4 -10 6 0 11 5 11 10 0 6 -2 10 -4 10 -3 0
-8 -4 -11 -10z"/>
<path d="M1010 1624 c0 -8 5 -12 10 -9 6 4 8 11 5 16 -9 14 -15 11 -15 -7z"/>
<path d="M940 1621 c0 -5 9 -13 20 -16 11 -4 18 -11 15 -16 -7 -11 55 -70 67
-63 4 3 8 0 8 -5 0 -6 5 -11 10 -11 16 0 12 36 -6 51 -15 12 -14 15 5 30 21
18 19 31 -5 22 -8 -3 -14 -11 -14 -18 0 -7 -6 -18 -13 -24 -11 -8 -20 -3 -43
24 -29 35 -44 44 -44 26z"/>
<path d="M1252 1568 c5 -15 28 -23 28 -10 0 5 -7 13 -16 16 -10 4 -14 1 -12
-6z"/>
<path d="M1300 1529 c0 -5 5 -7 10 -4 6 3 10 8 10 11 0 2 -4 4 -10 4 -5 0 -10
-5 -10 -11z"/>
<path d="M1083 1502 c-26 -28 -28 -43 -11 -60 18 -18 43 -15 63 8 16 18 14 62
-2 46 -4 -4 -12 2 -17 12 -10 18 -12 18 -33 -6z m31 -11 c8 -12 -3 -41 -15
-41 -5 0 -9 11 -9 25 0 25 14 34 24 16z"/>
<path d="M1190 1513 c0 -6 4 -14 9 -17 5 -3 7 -16 4 -29 -4 -20 -3 -20 21 6
15 16 24 33 21 38 -10 15 -25 10 -19 -6 8 -21 -13 -19 -25 3 -6 9 -11 12 -11
5z"/>
<path d="M1276 1511 c-8 -12 3 -41 15 -41 12 0 12 37 0 45 -5 3 -12 1 -15 -4z"/>
<path d="M1207 1420 c-27 -27 -47 -55 -45 -62 3 -8 9 -5 17 10 6 12 18 22 25
22 7 0 20 14 28 31 9 17 19 30 24 29 5 -1 10 3 12 9 8 23 -15 9 -61 -39z"/>
<path d="M1156 1452 c-2 -4 -1 -14 4 -21 10 -17 31 -5 23 14 -6 16 -19 20 -27
7z"/>
<path d="M1122 1409 c2 -7 10 -15 17 -17 8 -3 12 1 9 9 -2 7 -10 15 -17 17 -8
3 -12 -1 -9 -9z"/>
</g>
</svg>
